<svg xmlns="http://www.w3.org/2000/svg" xmlns:xlink="http://www.w3.org/1999/xlink" width="472.5" height="49.541" viewBox="0 0 472.5 49.541"><defs><clipPath id="a"><rect width="470" height="47.041" transform="translate(0 0)" fill="#001731"/></clipPath><clipPath id="b"><rect width="470" height="47.041" transform="translate(0 0)" fill="none" stroke="#def4ff" stroke-width="1"/></clipPath></defs><g transform="translate(-59.5 -71.5)"><g transform="translate(62 74)" style="mix-blend-mode:soft-light;isolation:isolate"><path d="M.642.642V10.2H28.379V46.315h9.728V10.2H65.856V.642Z" fill="#001731"/><path d="M.642,10.2h0Zm.642-8.917h63.93V9.558H37.465V45.672H29.021V9.558H1.284ZM0,0V10.842H27.74V46.957H38.749V10.842H66.5V0Z" fill="#001731"/><g clip-path="url(#a)"><path d="M136.243,23.478c0,8.989-6.521,13.351-19.932,13.351H115.9c-13.175-.049-19.58-4.422-19.58-13.351V.642H87.9V23.478c0,15.2,9.558,22.921,28.406,22.921s28.416-7.717,28.416-22.921V.642h-8.484Z" fill="#001731"/><path d="M136.243,23.478h-.6c-.015,4.349-1.533,7.427-4.67,9.547s-8.017,3.21-14.662,3.21H115.9c-6.524-.025-11.306-1.139-14.395-3.247s-4.574-5.185-4.588-9.51V.036H87.305V23.478C87.3,31.195,89.756,37.156,94.662,41.1s12.148,5.888,21.649,5.888,16.749-1.939,21.655-5.888,7.366-9.91,7.357-17.627V.036h-9.68V23.478h1.2V1.235h7.284V23.478c-.01,7.487-2.329,12.987-6.915,16.694s-11.548,5.622-20.9,5.622S100,43.88,95.416,40.172s-6.9-9.207-6.912-16.694V1.235h7.218V23.478c-.015,4.6,1.693,8.19,5.109,10.5s8.417,3.416,15.068,3.452h.412c6.769-.012,11.86-1.09,15.328-3.416s5.219-5.912,5.2-10.54Z" fill="#001731"/><path d="M213.048,32.625,172.621.642h-7.408V46.4h9.567V15.24L214.893,46.4h7.8V.642h-9.646Z" fill="#001731"/><path d="M213.048,32.625l.4-.5L172.842,0h-8.271V47.042h10.851V16.561l39.249,30.481h8.666V0H212.406V32.625h.642l.4-.5-.4.5h.642V1.284h8.362V45.758h-6.938L174.138,13.932V45.758h-8.283V1.284H172.4L213.69,33.958V32.625Z" fill="#001731"/><path d="M290.619,32.625,250.195.642h-7.411V46.4h9.567V15.24L292.46,46.4h7.8V.642h-9.646Z" fill="#001731"/><path d="M290.619,32.625l.4-.5L250.419,0h-8.277V47.042h10.851V16.561l39.249,30.481h8.666V0H289.977V32.625h.642l.4-.5-.4.5h.642V1.284h8.362V45.758h-6.941L251.709,13.932V45.758h-8.283V1.284h6.545l41.29,32.674V32.625Z" fill="#001731"/><path d="M329.329,28.3h48.835V18.729H328.487V10.2h43.78V.642H318.844V23.478c0,15.2,10.961,22.921,32.568,22.921H383.93v-9.57H351.412c-12.319,0-19.727-2.871-22.083-8.529" fill="#001731"/><path d="M329.329,28.3v.642h49.477V18.087H329.129V10.842h43.78V0H318.2V23.478c-.013,7.753,2.835,13.75,8.453,17.688s13.88,5.875,24.757,5.875h33.161V36.186H351.412c-6.11,0-10.974-.714-14.545-2.1s-5.845-3.4-6.944-6.034l-.594.243v0l-.59.242c1.253,3.029,3.87,5.282,7.665,6.748s8.8,2.181,15.008,2.181h31.879v8.286H351.412c-10.734,0-18.748-1.926-24.018-5.645s-7.9-9.183-7.908-16.634V1.284h52.139V9.558H327.848v9.813h49.674v8.286H328.369l.37.885Z" fill="#001731"/><path d="M436.711,36.829c-15.422,0-22.921-4.362-22.921-13.351V.642h-9.644V23.478c0,15.2,10.956,22.921,32.565,22.921h32.646v-9.57Z" fill="#001731"/><path d="M436.711,36.829v-.643c-7.654,0-13.287-1.089-16.921-3.222a10.525,10.525,0,0,1-4.028-3.925,11.1,11.1,0,0,1-1.33-5.561V0H403.5V23.478c-.012,7.754,2.835,13.75,8.454,17.688s13.877,5.875,24.753,5.875H470V36.186H436.711v1.285h32.005v8.286H436.711c-10.731,0-18.745-1.926-24.018-5.645s-7.892-9.183-7.9-16.634V1.284h8.36V23.478a12.38,12.38,0,0,0,1.5,6.191c1.507,2.677,4.151,4.64,7.825,5.912a44.4,44.4,0,0,0,14.241,1.89Z" fill="#001731"/></g></g><g transform="translate(60 72)"><path d="M.642.642V10.2H28.379V46.315h9.728V10.2H65.856V.642Z" fill="none" stroke="#def4ff" stroke-width="1"/><path d="M.642,10.2h0Zm.642-8.917h63.93V9.558H37.465V45.672H29.021V9.558H1.284ZM0,0V10.842H27.74V46.957H38.749V10.842H66.5V0Z" fill="none" stroke="#def4ff" stroke-width="1"/><g clip-path="url(#b)"><path d="M136.243,23.478c0,8.989-6.521,13.351-19.932,13.351H115.9c-13.175-.049-19.58-4.422-19.58-13.351V.642H87.9V23.478c0,15.2,9.558,22.921,28.406,22.921s28.416-7.717,28.416-22.921V.642h-8.484Z" fill="none" stroke="#def4ff" stroke-width="1"/><path d="M136.243,23.478h-.6c-.015,4.349-1.533,7.427-4.67,9.547s-8.017,3.21-14.662,3.21H115.9c-6.524-.025-11.306-1.139-14.395-3.247s-4.574-5.185-4.588-9.51V.036H87.305V23.478C87.3,31.195,89.756,37.156,94.662,41.1s12.148,5.888,21.649,5.888,16.749-1.939,21.655-5.888,7.366-9.91,7.357-17.627V.036h-9.68V23.478h1.2V1.235h7.284V23.478c-.01,7.487-2.329,12.987-6.915,16.694s-11.548,5.622-20.9,5.622S100,43.88,95.416,40.172s-6.9-9.207-6.912-16.694V1.235h7.218V23.478c-.015,4.6,1.693,8.19,5.109,10.5s8.417,3.416,15.068,3.452h.412c6.769-.012,11.86-1.09,15.328-3.416s5.219-5.912,5.2-10.54Z" fill="none" stroke="#def4ff" stroke-width="1"/><path d="M213.048,32.625,172.621.642h-7.408V46.4h9.567V15.24L214.893,46.4h7.8V.642h-9.646Z" fill="none" stroke="#def4ff" stroke-width="1"/><path d="M213.048,32.625l.4-.5L172.842,0h-8.271V47.042h10.851V16.561l39.249,30.481h8.666V0H212.406V32.625h.642l.4-.5-.4.5h.642V1.284h8.362V45.758h-6.938L174.138,13.932V45.758h-8.283V1.284H172.4L213.69,33.958V32.625Z" fill="none" stroke="#def4ff" stroke-width="1"/><path d="M290.619,32.625,250.195.642h-7.411V46.4h9.567V15.24L292.46,46.4h7.8V.642h-9.646Z" fill="none" stroke="#def4ff" stroke-width="1"/><path d="M290.619,32.625l.4-.5L250.419,0h-8.277V47.042h10.851V16.561l39.249,30.481h8.666V0H289.977V32.625h.642l.4-.5-.4.5h.642V1.284h8.362V45.758h-6.941L251.709,13.932V45.758h-8.283V1.284h6.545l41.29,32.674V32.625Z" fill="none" stroke="#def4ff" stroke-width="1"/><path d="M329.329,28.3h48.835V18.729H328.487V10.2h43.78V.642H318.844V23.478c0,15.2,10.961,22.921,32.568,22.921H383.93v-9.57H351.412c-12.319,0-19.727-2.871-22.083-8.529" fill="none" stroke="#def4ff" stroke-width="1"/><path d="M329.329,28.3v.642h49.477V18.087H329.129V10.842h43.78V0H318.2V23.478c-.013,7.753,2.835,13.75,8.453,17.688s13.88,5.875,24.757,5.875h33.161V36.186H351.412c-6.11,0-10.974-.714-14.545-2.1s-5.845-3.4-6.944-6.034l-.594.243v0l-.59.242c1.253,3.029,3.87,5.282,7.665,6.748s8.8,2.181,15.008,2.181h31.879v8.286H351.412c-10.734,0-18.748-1.926-24.018-5.645s-7.9-9.183-7.908-16.634V1.284h52.139V9.558H327.848v9.813h49.674v8.286H328.369l.37.885Z" fill="none" stroke="#def4ff" stroke-width="1"/><path d="M436.711,36.829c-15.422,0-22.921-4.362-22.921-13.351V.642h-9.644V23.478c0,15.2,10.956,22.921,32.565,22.921h32.646v-9.57Z" fill="none" stroke="#def4ff" stroke-width="1"/><path d="M436.711,36.829v-.643c-7.654,0-13.287-1.089-16.921-3.222a10.525,10.525,0,0,1-4.028-3.925,11.1,11.1,0,0,1-1.33-5.561V0H403.5V23.478c-.012,7.754,2.835,13.75,8.454,17.688s13.877,5.875,24.753,5.875H470V36.186H436.711v1.285h32.005v8.286H436.711c-10.731,0-18.745-1.926-24.018-5.645s-7.892-9.183-7.9-16.634V1.284h8.36V23.478a12.38,12.38,0,0,0,1.5,6.191c1.507,2.677,4.151,4.64,7.825,5.912a44.4,44.4,0,0,0,14.241,1.89Z" fill="none" stroke="#def4ff" stroke-width="1"/></g></g></g></svg>